if (_typeface_js && _typeface_js.loadFace) _typeface_js.loadFace({"glyphs":{"0":{"ha":694,"x_min":72,"x_max":621,"o":"m 435 896 q 539 837 496 878 q 610 733 582 796 q 615 692 610 715 q 621 640 621 668 l 621 546 l 621 358 l 621 278 q 615 228 621 253 q 610 188 610 203 q 539 82 582 126 q 435 13 496 38 q 392 6 415 13 q 340 0 368 0 q 300 6 322 0 q 258 13 278 13 q 150 82 197 38 q 83 188 103 126 q 74 228 75 203 q 72 278 72 253 l 72 358 l 72 546 l 72 640 q 74 692 72 668 q 83 733 75 715 q 150 837 103 796 q 258 896 197 878 q 300 913 278 906 q 340 921 322 921 q 392 913 368 921 q 435 896 415 906 m 258 278 q 281 211 258 235 q 340 188 304 188 q 409 211 383 188 q 435 278 435 235 l 435 358 l 435 383 l 435 533 l 435 546 l 435 640 q 409 705 435 676 q 340 733 383 733 q 281 705 304 733 q 258 640 258 676 l 258 546 l 258 533 l 258 383 l 258 358 l 258 278 l 258 278 z "},"1":{"ha":694,"x_min":72,"x_max":621,"o":"m 610 188 l 621 188 l 621 0 l 435 0 l 340 0 l 258 0 l 72 0 l 72 188 l 83 188 l 258 188 l 258 278 l 258 358 l 258 383 l 258 533 l 258 546 l 258 640 l 258 733 l 83 733 l 72 733 l 72 921 l 258 921 l 340 921 l 435 921 l 435 896 l 435 733 l 435 640 l 435 546 l 435 533 l 435 383 l 435 358 l 435 278 l 435 188 l 610 188 z "},"2":{"ha":694,"x_min":72,"x_max":622,"o":"m 342 358 q 284 336 308 358 q 260 278 260 314 l 260 188 l 342 188 l 435 188 l 610 188 l 622 188 l 622 0 l 435 0 l 342 0 l 260 0 l 72 0 l 72 188 l 72 278 q 74 319 72 296 q 85 358 75 343 q 111 412 94 386 q 146 453 128 438 q 199 504 171 481 q 260 533 226 528 q 303 544 279 543 q 342 546 326 546 q 411 576 388 546 q 435 640 435 606 q 411 705 435 676 q 342 733 388 733 q 284 705 308 733 q 260 640 260 676 l 260 546 l 85 546 l 72 546 l 72 640 q 74 692 72 668 q 85 733 75 715 q 151 837 104 796 q 260 896 199 878 q 303 913 279 906 q 342 921 326 921 q 393 913 369 921 q 435 896 417 906 q 540 837 497 878 q 610 733 582 796 q 616 692 610 715 q 622 640 622 668 q 616 594 622 615 q 610 546 610 574 q 585 501 601 522 q 553 453 568 481 q 498 410 525 428 q 435 383 471 393 q 393 366 417 374 q 342 358 369 358 z "},"3":{"ha":694,"x_min":67,"x_max":613,"o":"m 613 640 q 606 594 613 615 q 600 546 600 574 q 576 501 590 522 q 543 453 563 481 q 576 412 563 438 q 600 358 590 386 q 606 319 600 343 q 613 278 613 296 q 606 228 613 253 q 600 188 600 203 q 425 13 551 64 q 385 6 410 13 q 332 0 360 0 q 293 6 317 0 q 250 13 269 13 q 141 82 188 38 q 79 188 94 126 q 68 228 69 203 q 67 278 67 253 l 67 358 l 79 358 l 250 358 l 250 278 q 274 211 250 235 q 332 188 297 188 q 401 211 378 188 q 425 278 425 235 q 401 336 425 314 q 332 358 378 358 l 250 358 l 250 383 l 250 533 l 250 546 l 332 546 q 401 576 378 546 q 425 640 425 606 q 401 705 425 676 q 332 733 378 733 q 274 705 297 733 q 250 640 250 676 l 250 546 l 79 546 l 67 546 l 67 640 q 68 692 67 668 q 79 733 69 715 q 141 837 94 796 q 250 896 188 878 q 293 913 269 906 q 332 921 317 921 q 385 913 360 921 q 425 896 410 906 q 600 733 551 860 q 606 692 600 715 q 613 640 613 668 z "},"4":{"ha":694,"x_min":74,"x_max":619,"o":"m 436 921 l 619 921 l 619 733 l 619 640 l 619 546 l 619 358 l 619 278 l 619 188 l 619 0 l 436 0 l 436 13 l 436 188 l 436 278 l 436 358 l 342 358 l 261 358 l 86 358 l 74 358 l 74 546 l 74 640 l 74 733 l 74 921 l 261 921 l 261 896 l 261 733 l 261 640 l 261 546 l 342 546 l 436 546 l 436 640 l 436 733 l 436 896 l 436 921 z "},"5":{"ha":694,"x_min":81,"x_max":625,"o":"m 443 921 l 625 921 l 625 733 l 618 733 l 443 733 l 349 733 l 267 733 l 267 640 q 290 576 267 606 q 349 546 313 546 q 399 544 374 546 q 443 533 424 543 q 504 504 476 528 q 557 453 532 481 q 592 412 575 438 q 618 358 608 386 q 622 319 618 343 q 625 278 625 296 q 622 228 625 253 q 618 188 618 203 q 547 82 590 126 q 443 13 504 38 q 399 6 424 13 q 349 0 374 0 q 308 6 329 0 q 267 13 286 13 q 158 82 206 38 q 92 188 111 126 q 82 228 83 203 q 81 278 81 253 l 81 358 l 92 358 l 267 358 l 267 278 q 290 211 267 235 q 349 188 313 188 q 417 211 392 188 q 443 278 443 235 q 417 336 443 314 q 349 358 392 358 q 308 366 329 358 q 267 383 286 374 q 203 410 231 393 q 149 453 176 428 q 116 501 131 481 q 92 546 101 522 q 82 594 83 574 q 81 640 81 615 l 81 733 l 81 921 l 267 921 l 349 921 l 443 921 z "},"6":{"ha":694,"x_min":72,"x_max":622,"o":"m 435 896 q 540 837 497 878 q 610 733 582 796 q 616 692 610 715 q 622 640 622 668 l 622 546 l 610 546 l 435 546 l 435 640 q 410 705 435 676 q 342 733 385 733 q 284 705 308 733 q 260 640 260 676 l 260 546 l 342 546 q 393 544 369 546 q 435 533 417 543 q 497 504 469 528 q 549 453 525 481 q 585 412 568 438 q 610 358 601 386 q 616 319 610 343 q 622 278 622 296 q 616 228 622 253 q 610 188 610 203 q 540 82 582 126 q 435 13 497 38 q 393 6 417 13 q 342 0 369 0 q 301 6 322 0 q 260 13 279 13 q 151 82 199 38 q 85 188 104 126 q 74 228 75 203 q 72 278 72 253 l 72 358 l 72 546 l 72 640 q 74 692 72 668 q 85 733 75 715 q 151 837 104 796 q 260 896 199 878 q 301 913 279 906 q 342 921 322 921 q 393 913 369 921 q 435 896 417 906 m 260 278 q 284 211 260 235 q 342 188 308 188 q 410 211 385 188 q 435 278 435 235 q 410 336 435 314 q 342 358 385 358 q 284 336 308 358 q 260 278 260 314 z "},"7":{"ha":694,"x_min":68,"x_max":618,"o":"m 431 921 l 618 921 l 618 733 l 618 640 l 618 546 l 618 358 l 618 278 l 618 188 l 618 0 l 431 0 l 431 13 l 431 188 l 431 278 l 431 358 l 431 383 l 431 533 l 431 546 l 431 640 l 431 733 l 338 733 l 256 733 l 81 733 l 68 733 l 68 921 l 256 921 l 338 921 l 431 921 z "},"8":{"ha":694,"x_min":76,"x_max":622,"o":"m 622 640 q 616 594 622 615 q 610 546 610 574 q 585 501 600 522 q 553 453 571 481 q 585 412 571 438 q 610 358 600 386 q 616 319 610 343 q 622 278 622 296 q 616 228 622 253 q 610 188 610 203 q 435 13 558 64 q 394 6 419 13 q 340 0 368 0 q 301 6 325 0 q 260 13 278 13 q 150 82 197 38 q 85 188 103 126 q 77 228 78 203 q 76 278 76 253 q 77 319 76 296 q 85 358 78 343 q 110 412 93 386 q 146 453 126 438 q 110 501 126 481 q 85 546 93 522 q 77 594 78 574 q 76 640 76 615 q 77 692 76 668 q 85 733 78 715 q 150 837 103 796 q 260 896 197 878 q 301 913 278 906 q 340 921 325 921 q 394 913 368 921 q 435 896 419 906 q 610 733 558 860 q 616 692 610 715 q 622 640 622 668 m 435 640 q 410 705 435 676 q 340 733 386 733 q 283 705 307 733 q 260 640 260 676 q 283 576 260 606 q 340 546 307 546 q 410 576 386 546 q 435 640 435 606 m 260 278 q 283 211 260 235 q 340 188 307 188 q 410 211 386 188 q 435 278 435 235 q 410 336 435 314 q 340 358 386 358 q 283 336 307 358 q 260 278 260 314 z "},"9":{"ha":694,"x_min":81,"x_max":625,"o":"m 439 896 q 614 733 563 860 q 619 692 614 715 q 625 640 625 668 l 625 546 l 625 358 l 625 278 q 619 228 625 253 q 614 188 614 203 q 439 13 563 64 q 399 6 424 13 q 349 0 374 0 q 306 6 329 0 q 267 13 282 13 q 155 82 203 38 q 92 188 107 126 q 82 228 83 203 q 81 278 81 253 l 81 358 l 92 358 l 267 358 l 267 278 q 290 211 267 235 q 349 188 313 188 q 415 211 392 188 q 439 278 439 235 l 439 358 l 349 358 q 306 366 329 358 q 267 383 282 374 q 202 410 231 393 q 149 453 174 428 q 115 501 131 481 q 92 546 99 522 q 82 594 83 574 q 81 640 81 615 q 82 692 81 668 q 92 733 83 715 q 155 837 107 796 q 267 896 203 878 q 306 913 282 906 q 349 921 329 921 q 399 913 374 921 q 439 896 424 906 m 439 640 q 415 705 439 676 q 349 733 392 733 q 290 705 313 733 q 267 640 267 676 q 290 576 267 606 q 349 546 313 546 q 415 576 392 546 q 439 640 439 606 z "},"B":{"ha":694,"x_min":76,"x_max":622,"o":"m 622 640 q 616 594 622 615 q 610 546 610 574 q 588 501 603 522 q 553 453 572 481 q 588 412 572 438 q 610 358 603 386 q 616 319 610 343 q 622 278 622 296 q 616 228 622 253 q 610 188 610 203 q 435 13 561 64 q 394 6 419 13 q 344 0 369 0 l 264 0 l 76 0 l 76 188 l 76 278 l 76 358 l 76 546 l 76 640 l 76 733 l 76 921 l 264 921 l 344 921 q 394 913 369 921 q 435 896 419 906 q 610 733 561 860 q 616 692 610 715 q 622 640 622 668 m 344 546 q 411 576 388 546 q 435 640 435 606 q 411 705 435 676 q 344 733 388 733 l 264 733 l 264 640 l 264 546 l 344 546 l 344 546 m 344 188 q 411 211 388 188 q 435 278 435 235 q 411 336 435 314 q 344 358 388 358 l 264 358 l 264 278 l 264 188 l 344 188 z "},"C":{"ha":694,"x_min":67,"x_max":613,"o":"m 429 896 q 533 837 490 878 q 604 733 576 796 q 608 692 604 715 q 613 640 613 668 l 613 546 l 604 546 l 429 546 l 429 640 q 403 705 429 676 q 335 733 378 733 q 276 705 299 733 q 254 640 254 676 l 254 546 l 254 533 l 254 383 l 254 358 l 254 278 q 276 211 254 235 q 335 188 299 188 q 403 211 378 188 q 429 278 429 235 l 429 358 l 604 358 l 613 358 l 613 278 q 608 228 613 253 q 604 188 604 203 q 533 82 576 126 q 429 13 490 38 q 385 6 410 13 q 335 0 360 0 q 293 6 317 0 q 254 13 269 13 q 144 82 192 38 q 78 188 97 126 q 68 228 69 203 q 67 278 67 253 l 67 358 l 67 546 l 67 640 q 68 692 67 668 q 78 733 69 715 q 144 837 97 796 q 254 896 192 878 q 293 913 269 906 q 335 921 317 921 q 385 913 360 921 q 429 896 410 906 z "},"D":{"ha":694,"x_min":74,"x_max":624,"o":"m 436 896 q 541 837 499 878 q 611 733 583 796 q 617 692 611 715 q 624 640 624 668 l 624 546 l 624 358 l 624 278 q 617 228 624 253 q 611 188 611 203 q 541 82 583 126 q 436 13 499 38 q 394 6 418 13 q 343 0 371 0 l 261 0 l 74 0 l 74 188 l 74 278 l 74 358 l 74 546 l 74 640 l 74 733 l 74 921 l 261 921 l 343 921 q 394 913 371 921 q 436 896 418 906 m 343 188 q 411 211 386 188 q 436 278 436 235 l 436 358 l 436 383 l 436 533 l 436 546 l 436 640 q 411 705 436 676 q 343 733 386 733 l 261 733 l 261 640 l 261 546 l 261 533 l 261 383 l 261 358 l 261 278 l 261 188 l 343 188 z "},"E":{"ha":694,"x_min":68,"x_max":618,"o":"m 431 921 l 618 921 l 618 733 l 606 733 l 431 733 l 338 733 l 256 733 l 256 640 l 256 546 l 338 546 l 431 546 l 431 533 l 431 383 l 431 358 l 338 358 l 256 358 l 256 278 l 256 188 l 338 188 l 431 188 l 606 188 l 618 188 l 618 0 l 431 0 l 338 0 l 256 0 l 68 0 l 68 188 l 68 278 l 68 358 l 68 546 l 68 640 l 68 733 l 68 921 l 256 921 l 338 921 l 431 921 z "},"F":{"ha":694,"x_min":74,"x_max":619,"o":"m 432 921 l 619 921 l 619 733 l 607 733 l 432 733 l 338 733 l 257 733 l 257 640 l 257 546 l 338 546 l 432 546 l 432 533 l 432 383 l 432 358 l 338 358 l 257 358 l 257 278 l 257 188 l 257 13 l 257 0 l 74 0 l 74 188 l 74 278 l 74 358 l 74 546 l 74 640 l 74 733 l 74 921 l 257 921 l 338 921 l 432 921 z "},"G":{"ha":694,"x_min":69,"x_max":614,"o":"m 428 896 q 603 733 551 860 q 608 692 603 715 q 614 640 614 668 l 614 546 l 603 546 l 428 546 l 428 640 q 403 705 428 676 q 333 733 379 733 q 276 705 300 733 q 253 640 253 676 l 253 546 l 253 533 l 253 383 l 253 358 l 333 358 l 428 358 l 603 358 l 614 358 l 614 278 q 608 228 614 253 q 603 188 603 203 q 428 13 551 64 q 387 6 413 13 q 333 0 361 0 q 294 6 318 0 q 253 13 271 13 q 143 82 190 38 q 81 188 96 126 q 71 228 72 203 q 69 278 69 253 l 69 358 l 69 546 l 69 640 q 71 692 69 668 q 81 733 72 715 q 143 837 96 796 q 253 896 190 878 q 294 913 271 906 q 333 921 318 921 q 387 913 361 921 q 428 896 413 906 z "},"H":{"ha":694,"x_min":69,"x_max":615,"o":"m 432 921 l 615 921 l 615 733 l 615 640 l 615 546 l 615 358 l 615 278 l 615 188 l 615 0 l 432 0 l 432 13 l 432 188 l 432 278 l 432 358 l 339 358 l 244 358 l 244 278 l 244 188 l 244 13 l 244 0 l 69 0 l 69 188 l 69 278 l 69 358 l 69 546 l 69 640 l 69 733 l 69 921 l 244 921 l 244 896 l 244 733 l 244 640 l 244 546 l 339 546 l 432 546 l 432 640 l 432 733 l 432 896 l 432 921 z "},"I":{"ha":694,"x_min":68,"x_max":614,"o":"m 431 921 l 614 921 l 614 733 l 606 733 l 431 733 l 431 640 l 431 546 l 431 533 l 431 383 l 431 358 l 431 278 l 431 188 l 606 188 l 614 188 l 614 0 l 431 0 l 338 0 l 243 0 l 68 0 l 68 188 l 81 188 l 243 188 l 243 278 l 243 358 l 243 383 l 243 533 l 243 546 l 243 640 l 243 733 l 81 733 l 68 733 l 68 921 l 243 921 l 338 921 l 431 921 z "},"J":{"ha":694,"x_min":65,"x_max":615,"o":"m 428 921 l 615 921 l 615 733 l 615 640 l 615 546 l 615 358 l 615 278 q 609 228 615 253 q 603 188 603 203 q 532 82 575 126 q 428 13 489 38 q 385 6 408 13 q 333 0 361 0 q 293 6 315 0 q 253 13 271 13 q 143 82 190 38 q 78 188 96 126 q 67 228 68 203 q 65 278 65 253 l 65 358 l 78 358 l 253 358 l 253 278 q 276 211 253 235 q 333 188 300 188 q 402 211 376 188 q 428 278 428 235 l 428 358 l 428 383 l 428 533 l 428 546 l 428 640 l 428 733 l 428 896 l 428 921 z "},"K":{"ha":694,"x_min":72,"x_max":621,"o":"m 435 921 l 621 921 l 621 733 l 621 640 q 615 594 621 615 q 610 546 610 574 q 584 501 600 522 q 553 453 568 481 q 584 412 568 438 q 610 358 600 386 q 615 319 610 343 q 621 278 621 296 l 621 188 l 621 0 l 435 0 l 435 13 l 435 188 l 435 278 q 410 336 435 314 q 340 358 386 358 l 260 358 l 260 278 l 260 188 l 260 13 l 260 0 l 72 0 l 72 188 l 72 278 l 72 358 l 72 546 l 72 640 l 72 733 l 72 921 l 260 921 l 260 896 l 260 733 l 260 640 l 260 546 l 340 546 q 410 576 386 546 q 435 640 435 606 l 435 733 l 435 896 l 435 921 z "},"L":{"ha":694,"x_min":76,"x_max":622,"o":"m 610 188 l 622 188 l 622 0 l 435 0 l 342 0 l 260 0 l 76 0 l 76 188 l 76 278 l 76 358 l 76 546 l 76 640 l 76 733 l 76 921 l 260 921 l 260 896 l 260 733 l 260 640 l 260 546 l 260 533 l 260 383 l 260 358 l 260 278 l 260 188 l 342 188 l 435 188 l 610 188 z "},"M":{"ha":694,"x_min":75,"x_max":621,"o":"m 444 900 l 621 900 l 621 1 l 444 1 l 444 461 l 344 231 l 257 461 l 257 1 l 75 1 l 75 900 l 257 900 l 344 671 l 444 900 z "},"N":{"ha":694,"x_min":75,"x_max":621,"o":"m 438 921 l 621 921 l 621 0 l 438 0 l 263 453 l 263 0 l 75 0 l 75 921 l 263 921 l 438 453 l 438 921 z "},"O":{"ha":694,"x_min":72,"x_max":621,"o":"m 435 896 q 539 837 496 878 q 610 733 582 796 q 615 692 610 715 q 621 640 621 668 l 621 546 l 621 358 l 621 278 q 615 228 621 253 q 610 188 610 203 q 539 82 582 126 q 435 13 496 38 q 392 6 415 13 q 340 0 368 0 q 300 6 322 0 q 258 13 278 13 q 150 82 197 38 q 83 188 103 126 q 74 228 75 203 q 72 278 72 253 l 72 358 l 72 546 l 72 640 q 74 692 72 668 q 83 733 75 715 q 150 837 103 796 q 258 896 197 878 q 300 913 278 906 q 340 921 322 921 q 392 913 368 921 q 435 896 415 906 m 258 278 q 281 211 258 235 q 340 188 304 188 q 409 211 383 188 q 435 278 435 235 l 435 358 l 435 383 l 435 533 l 435 546 l 435 640 q 409 705 435 676 q 340 733 383 733 q 281 705 304 733 q 258 640 258 676 l 258 546 l 258 533 l 258 383 l 258 358 l 258 278 l 258 278 z "},"P":{"ha":694,"x_min":78,"x_max":628,"o":"m 440 896 q 545 837 503 878 q 615 733 588 796 q 622 692 615 715 q 628 640 628 668 q 622 594 628 615 q 615 546 615 574 q 590 501 607 522 q 558 453 574 481 q 503 410 531 428 q 440 383 475 393 q 399 366 422 374 q 347 358 375 358 l 265 358 l 265 278 l 265 188 l 265 13 l 265 0 l 78 0 l 78 188 l 78 278 l 78 358 l 78 546 l 78 640 l 78 733 l 78 921 l 265 921 l 347 921 q 399 913 375 921 q 440 896 422 906 m 347 546 q 415 576 390 546 q 440 640 440 606 q 415 705 440 676 q 347 733 390 733 l 265 733 l 265 640 l 265 546 l 347 546 z "},"Q":{"ha":694,"x_min":69,"x_max":615,"o":"m 428 896 q 533 837 490 878 q 603 733 575 796 q 609 692 603 715 q 615 640 615 668 l 615 546 l 615 358 l 615 278 l 615 0 l 335 0 q 301 1 319 0 q 265 13 283 3 l 253 13 q 144 82 190 38 q 78 188 97 126 q 70 228 71 203 q 69 278 69 253 l 69 358 l 69 546 l 69 640 q 70 692 69 668 q 78 733 71 715 q 144 837 97 796 q 253 896 190 878 q 296 913 272 906 q 335 921 319 921 q 385 913 363 921 q 428 896 408 906 m 428 640 q 404 705 428 676 q 335 733 381 733 q 276 705 300 733 q 253 640 253 676 l 253 546 l 253 533 l 253 383 l 253 358 l 253 278 q 276 211 253 235 q 335 188 300 188 q 404 211 381 188 q 428 278 428 235 l 428 358 l 428 383 l 428 533 l 428 546 l 428 640 l 428 640 z "},"R":{"ha":694,"x_min":79,"x_max":625,"o":"m 625 640 q 619 594 625 615 q 613 546 613 574 q 588 501 603 522 q 556 453 574 481 q 588 412 574 438 q 613 358 603 386 q 619 319 613 343 q 625 278 625 296 l 625 188 l 625 0 l 438 0 l 438 13 l 438 188 l 438 278 q 413 336 438 314 q 343 358 389 358 l 263 358 l 263 278 l 263 188 l 263 13 l 263 0 l 79 0 l 79 188 l 79 278 l 79 358 l 79 546 l 79 640 l 79 733 l 79 921 l 263 921 l 343 921 q 397 913 371 921 q 438 896 422 906 q 613 733 561 860 q 619 692 613 715 q 625 640 625 668 m 343 546 q 413 576 389 546 q 438 640 438 606 q 413 705 438 676 q 343 733 389 733 l 263 733 l 263 640 l 263 546 l 343 546 l 343 546 z "},"S":{"ha":694,"x_min":76,"x_max":621,"o":"m 439 896 q 542 837 500 878 q 610 733 585 796 q 615 692 610 715 q 621 640 621 668 l 621 546 l 610 546 l 439 546 l 439 640 q 413 705 439 676 q 344 733 388 733 q 285 705 308 733 q 263 640 263 676 q 285 576 263 606 q 344 546 308 546 q 394 544 369 546 q 439 533 419 543 q 500 504 472 528 q 553 453 528 481 q 587 412 571 438 q 610 358 603 386 q 615 319 610 343 q 621 278 621 296 q 615 228 621 253 q 610 188 610 203 q 542 82 585 126 q 439 13 500 38 q 394 6 419 13 q 344 0 369 0 q 302 6 326 0 q 263 13 278 13 q 152 82 201 38 q 88 188 103 126 q 78 228 79 203 q 76 278 76 253 l 76 358 l 88 358 l 263 358 l 263 278 q 285 211 263 235 q 344 188 308 188 q 413 211 388 188 q 439 278 439 235 q 413 336 439 314 q 344 358 388 358 q 302 366 326 358 q 263 383 278 374 q 199 410 226 393 q 144 453 172 428 q 112 501 126 481 q 88 546 97 522 q 78 594 79 574 q 76 640 76 615 q 78 692 76 668 q 88 733 79 715 q 152 837 103 796 q 263 896 201 878 q 302 913 278 906 q 344 921 326 921 q 394 913 369 921 q 439 896 419 906 z "},"T":{"ha":694,"x_min":64,"x_max":610,"o":"m 426 896 l 610 896 l 610 721 l 601 721 l 426 721 l 426 628 l 426 533 l 426 514 l 426 358 l 426 351 l 426 257 l 426 164 l 426 0 l 426 -11 l 333 -11 l 251 -11 l 251 0 l 251 164 l 251 257 l 251 351 l 251 358 l 251 514 l 251 533 l 251 628 l 251 721 l 76 721 l 64 721 l 64 896 l 251 896 l 333 896 l 426 896 z "},"U":{"ha":694,"x_min":71,"x_max":621,"o":"m 433 921 l 621 921 l 621 733 l 621 640 l 621 546 l 621 358 l 621 278 q 615 228 621 253 q 608 188 608 203 q 538 82 581 126 q 433 13 496 38 q 391 6 414 13 q 340 0 368 0 q 299 6 321 0 q 258 13 278 13 q 149 82 196 38 q 83 188 101 126 q 72 228 74 203 q 71 278 71 253 l 71 358 l 71 546 l 71 640 l 71 733 l 71 921 l 258 921 l 258 896 l 258 733 l 258 640 l 258 546 l 258 533 l 258 383 l 258 358 l 258 278 q 282 211 258 235 q 340 188 306 188 q 408 211 383 188 q 433 278 433 235 l 433 358 l 433 383 l 433 533 l 433 546 l 433 640 l 433 733 l 433 896 l 433 921 z "},"V":{"ha":694,"x_min":71,"x_max":621,"o":"m 433 921 l 621 921 l 433 0 l 246 0 l 71 921 l 246 921 l 339 453 l 433 921 z "},"W":{"ha":694,"x_min":72,"x_max":625,"o":"m 625 900 l 625 1 l 439 1 l 343 231 l 254 1 l 72 1 l 72 900 l 254 900 l 254 461 l 343 671 l 439 461 l 439 900 l 625 900 z "},"X":{"ha":694,"x_min":75,"x_max":621,"o":"m 621 921 l 433 453 l 621 0 l 433 0 l 344 232 l 250 0 l 75 0 l 250 453 l 75 921 l 250 921 l 344 689 l 433 921 l 621 921 z "},"Y":{"ha":694,"x_min":68,"x_max":614,"o":"m 431 921 l 614 921 l 569 790 l 544 733 l 463 546 l 463 526 l 431 453 l 431 383 l 431 358 l 431 278 l 431 188 l 431 13 l 431 0 l 338 0 l 243 0 l 243 13 l 243 188 l 243 278 l 243 358 l 243 383 l 243 453 l 219 526 l 207 546 l 138 733 l 113 790 l 68 921 l 243 921 l 256 908 l 325 733 l 325 733 l 338 689 l 357 733 l 357 733 l 431 908 l 431 921 z "},"Z":{"ha":694,"x_min":68,"x_max":618,"o":"m 68 921 l 618 921 l 618 733 l 243 188 l 618 188 l 618 0 l 243 0 l 68 0 l 68 188 l 431 733 l 243 733 l 68 733 l 68 921 z "},".":{"ha":310,"x_min":67,"x_max":254,"o":"m 160 188 q 194 179 176 188 q 224 158 211 171 q 246 128 238 144 q 254 94 254 111 q 246 59 254 76 q 224 28 238 42 q 194 8 211 15 q 160 0 176 0 q 92 29 117 0 q 67 94 67 58 q 92 158 67 128 q 160 188 117 188 z "},"…":{"ha":694,"x_min":72,"x_max":618,"o":"m 161 188 q 197 179 181 188 q 227 158 214 171 q 248 128 240 144 q 256 94 256 111 q 248 59 256 76 q 227 28 240 42 q 197 8 214 15 q 161 0 181 0 q 128 8 144 0 q 100 28 113 15 q 80 59 88 42 q 72 94 72 76 q 80 128 72 111 q 100 158 88 144 q 128 179 113 171 q 161 188 144 188 m 349 188 q 384 179 367 188 q 415 158 401 171 q 435 128 428 144 q 443 94 443 111 q 435 59 443 76 q 415 28 428 42 q 384 8 401 15 q 349 0 367 0 q 281 29 306 0 q 256 94 256 58 q 281 158 256 128 q 349 188 306 188 m 524 188 q 592 158 567 188 q 618 94 618 128 q 592 29 618 58 q 524 0 567 0 q 467 29 490 0 q 443 94 443 58 q 467 158 443 128 q 524 188 490 188 z "},"–":{"ha":694,"x_min":158,"x_max":528,"o":"m 169 358 l 158 358 l 158 546 l 169 546 l 342 546 l 435 546 l 528 546 l 528 533 l 528 383 l 528 358 l 435 358 l 342 358 l 169 358 z "},"-":{"ha":504,"x_min":165,"x_max":349,"o":"m 260 358 l 165 358 l 165 383 l 165 533 l 165 546 l 260 546 l 349 546 l 349 533 l 349 383 l 349 358 l 260 358 z "},"—":{"ha":694,"x_min":74,"x_max":619,"o":"m 611 546 l 619 546 l 619 358 l 611 358 l 449 358 l 354 358 l 261 358 l 86 358 l 74 358 l 74 546 l 86 546 l 261 546 l 354 546 l 449 546 l 611 546 z "},"/":{"ha":694,"x_min":82,"x_max":632,"o":"m 269 0 l 82 0 l 457 921 l 632 921 l 269 0 z "},"\\":{"ha":694,"x_min":69,"x_max":619,"o":"m 619 0 l 443 0 l 69 921 l 257 921 l 619 0 z "}," ":{"ha":694,"x_min":0,"x_max":0,"o":""},"a":{"ha":694,"x_min":75,"x_max":621,"o":"m 433 896 q 608 733 560 860 q 615 692 608 715 q 621 640 621 668 l 621 546 l 621 358 l 621 278 l 621 188 l 621 0 l 433 0 l 433 13 l 433 188 l 433 278 l 433 358 l 340 358 l 250 358 l 250 278 l 250 188 l 250 13 l 250 0 l 75 0 l 75 188 l 75 278 l 75 358 l 75 546 l 75 640 q 76 692 75 668 q 83 733 76 715 q 149 837 103 796 q 250 896 194 878 q 300 913 275 906 q 340 921 325 921 q 393 913 368 921 q 433 896 418 906 m 433 640 q 410 705 433 676 q 340 733 386 733 q 307 726 324 733 q 278 705 290 718 q 258 675 265 692 q 250 640 250 658 l 250 546 l 340 546 l 433 546 l 433 640 l 433 640 z "},"b":{"ha":694,"x_min":76,"x_max":622,"o":"m 622 640 q 616 594 622 615 q 610 546 610 574 q 588 501 603 522 q 553 453 572 481 q 588 412 572 438 q 610 358 603 386 q 616 319 610 343 q 622 278 622 296 q 616 228 622 253 q 610 188 610 203 q 435 13 561 64 q 394 6 419 13 q 344 0 369 0 l 264 0 l 76 0 l 76 188 l 76 278 l 76 358 l 76 546 l 76 640 l 76 733 l 76 921 l 264 921 l 344 921 q 394 913 369 921 q 435 896 419 906 q 610 733 561 860 q 616 692 610 715 q 622 640 622 668 m 344 546 q 411 576 388 546 q 435 640 435 606 q 411 705 435 676 q 344 733 388 733 l 264 733 l 264 640 l 264 546 l 344 546 l 344 546 m 344 188 q 411 211 388 188 q 435 278 435 235 q 411 336 435 314 q 344 358 388 358 l 264 358 l 264 278 l 264 188 l 344 188 z "},"c":{"ha":694,"x_min":67,"x_max":613,"o":"m 429 896 q 533 837 490 878 q 604 733 576 796 q 608 692 604 715 q 613 640 613 668 l 613 546 l 604 546 l 429 546 l 429 640 q 403 705 429 676 q 335 733 378 733 q 276 705 299 733 q 254 640 254 676 l 254 546 l 254 533 l 254 383 l 254 358 l 254 278 q 276 211 254 235 q 335 188 299 188 q 403 211 378 188 q 429 278 429 235 l 429 358 l 604 358 l 613 358 l 613 278 q 608 228 613 253 q 604 188 604 203 q 533 82 576 126 q 429 13 490 38 q 385 6 410 13 q 335 0 360 0 q 293 6 317 0 q 254 13 269 13 q 144 82 192 38 q 78 188 97 126 q 68 228 69 203 q 67 278 67 253 l 67 358 l 67 546 l 67 640 q 68 692 67 668 q 78 733 69 715 q 144 837 97 796 q 254 896 192 878 q 293 913 269 906 q 335 921 317 921 q 385 913 360 921 q 429 896 410 906 z "},"d":{"ha":694,"x_min":74,"x_max":624,"o":"m 436 896 q 541 837 499 878 q 611 733 583 796 q 617 692 611 715 q 624 640 624 668 l 624 546 l 624 358 l 624 278 q 617 228 624 253 q 611 188 611 203 q 541 82 583 126 q 436 13 499 38 q 394 6 418 13 q 343 0 371 0 l 261 0 l 74 0 l 74 188 l 74 278 l 74 358 l 74 546 l 74 640 l 74 733 l 74 921 l 261 921 l 343 921 q 394 913 371 921 q 436 896 418 906 m 343 188 q 411 211 386 188 q 436 278 436 235 l 436 358 l 436 383 l 436 533 l 436 546 l 436 640 q 411 705 436 676 q 343 733 386 733 l 261 733 l 261 640 l 261 546 l 261 533 l 261 383 l 261 358 l 261 278 l 261 188 l 343 188 z "},"e":{"ha":694,"x_min":68,"x_max":618,"o":"m 431 921 l 618 921 l 618 733 l 606 733 l 431 733 l 338 733 l 256 733 l 256 640 l 256 546 l 338 546 l 431 546 l 431 533 l 431 383 l 431 358 l 338 358 l 256 358 l 256 278 l 256 188 l 338 188 l 431 188 l 606 188 l 618 188 l 618 0 l 431 0 l 338 0 l 256 0 l 68 0 l 68 188 l 68 278 l 68 358 l 68 546 l 68 640 l 68 733 l 68 921 l 256 921 l 338 921 l 431 921 z "},"f":{"ha":694,"x_min":74,"x_max":619,"o":"m 432 921 l 619 921 l 619 733 l 607 733 l 432 733 l 338 733 l 257 733 l 257 640 l 257 546 l 338 546 l 432 546 l 432 533 l 432 383 l 432 358 l 338 358 l 257 358 l 257 278 l 257 188 l 257 13 l 257 0 l 74 0 l 74 188 l 74 278 l 74 358 l 74 546 l 74 640 l 74 733 l 74 921 l 257 921 l 338 921 l 432 921 z "},"g":{"ha":694,"x_min":69,"x_max":614,"o":"m 428 896 q 603 733 551 860 q 608 692 603 715 q 614 640 614 668 l 614 546 l 603 546 l 428 546 l 428 640 q 403 705 428 676 q 333 733 379 733 q 276 705 300 733 q 253 640 253 676 l 253 546 l 253 533 l 253 383 l 253 358 l 333 358 l 428 358 l 603 358 l 614 358 l 614 278 q 608 228 614 253 q 603 188 603 203 q 428 13 551 64 q 387 6 413 13 q 333 0 361 0 q 294 6 318 0 q 253 13 271 13 q 143 82 190 38 q 81 188 96 126 q 71 228 72 203 q 69 278 69 253 l 69 358 l 69 546 l 69 640 q 71 692 69 668 q 81 733 72 715 q 143 837 96 796 q 253 896 190 878 q 294 913 271 906 q 333 921 318 921 q 387 913 361 921 q 428 896 413 906 z "},"h":{"ha":694,"x_min":69,"x_max":615,"o":"m 432 921 l 615 921 l 615 733 l 615 640 l 615 546 l 615 358 l 615 278 l 615 188 l 615 0 l 432 0 l 432 13 l 432 188 l 432 278 l 432 358 l 339 358 l 244 358 l 244 278 l 244 188 l 244 13 l 244 0 l 69 0 l 69 188 l 69 278 l 69 358 l 69 546 l 69 640 l 69 733 l 69 921 l 244 921 l 244 896 l 244 733 l 244 640 l 244 546 l 339 546 l 432 546 l 432 640 l 432 733 l 432 896 l 432 921 z "},"i":{"ha":694,"x_min":68,"x_max":614,"o":"m 431 921 l 614 921 l 614 733 l 606 733 l 431 733 l 431 640 l 431 546 l 431 533 l 431 383 l 431 358 l 431 278 l 431 188 l 606 188 l 614 188 l 614 0 l 431 0 l 338 0 l 243 0 l 68 0 l 68 188 l 81 188 l 243 188 l 243 278 l 243 358 l 243 383 l 243 533 l 243 546 l 243 640 l 243 733 l 81 733 l 68 733 l 68 921 l 243 921 l 338 921 l 431 921 z "},"j":{"ha":694,"x_min":65,"x_max":615,"o":"m 428 921 l 615 921 l 615 733 l 615 640 l 615 546 l 615 358 l 615 278 q 609 228 615 253 q 603 188 603 203 q 532 82 575 126 q 428 13 489 38 q 385 6 408 13 q 333 0 361 0 q 293 6 315 0 q 253 13 271 13 q 143 82 190 38 q 78 188 96 126 q 67 228 68 203 q 65 278 65 253 l 65 358 l 78 358 l 253 358 l 253 278 q 276 211 253 235 q 333 188 300 188 q 402 211 376 188 q 428 278 428 235 l 428 358 l 428 383 l 428 533 l 428 546 l 428 640 l 428 733 l 428 896 l 428 921 z "},"k":{"ha":694,"x_min":72,"x_max":621,"o":"m 435 921 l 621 921 l 621 733 l 621 640 q 615 594 621 615 q 610 546 610 574 q 584 501 600 522 q 553 453 568 481 q 584 412 568 438 q 610 358 600 386 q 615 319 610 343 q 621 278 621 296 l 621 188 l 621 0 l 435 0 l 435 13 l 435 188 l 435 278 q 410 336 435 314 q 340 358 386 358 l 260 358 l 260 278 l 260 188 l 260 13 l 260 0 l 72 0 l 72 188 l 72 278 l 72 358 l 72 546 l 72 640 l 72 733 l 72 921 l 260 921 l 260 896 l 260 733 l 260 640 l 260 546 l 340 546 q 410 576 386 546 q 435 640 435 606 l 435 733 l 435 896 l 435 921 z "},"l":{"ha":694,"x_min":76,"x_max":622,"o":"m 610 188 l 622 188 l 622 0 l 435 0 l 342 0 l 260 0 l 76 0 l 76 188 l 76 278 l 76 358 l 76 546 l 76 640 l 76 733 l 76 921 l 260 921 l 260 896 l 260 733 l 260 640 l 260 546 l 260 533 l 260 383 l 260 358 l 260 278 l 260 188 l 342 188 l 435 188 l 610 188 z "},"m":{"ha":694,"x_min":75,"x_max":621,"o":"m 444 900 l 621 900 l 621 1 l 444 1 l 444 461 l 344 231 l 257 461 l 257 1 l 75 1 l 75 900 l 257 900 l 344 671 l 444 900 z "},"n":{"ha":694,"x_min":75,"x_max":621,"o":"m 438 921 l 621 921 l 621 0 l 438 0 l 263 453 l 263 0 l 75 0 l 75 921 l 263 921 l 438 453 l 438 921 z "},"o":{"ha":694,"x_min":72,"x_max":621,"o":"m 435 896 q 539 837 496 878 q 610 733 582 796 q 615 692 610 715 q 621 640 621 668 l 621 546 l 621 358 l 621 278 q 615 228 621 253 q 610 188 610 203 q 539 82 582 126 q 435 13 496 38 q 392 6 415 13 q 340 0 368 0 q 300 6 322 0 q 258 13 278 13 q 150 82 197 38 q 83 188 103 126 q 74 228 75 203 q 72 278 72 253 l 72 358 l 72 546 l 72 640 q 74 692 72 668 q 83 733 75 715 q 150 837 103 796 q 258 896 197 878 q 300 913 278 906 q 340 921 322 921 q 392 913 368 921 q 435 896 415 906 m 258 278 q 281 211 258 235 q 340 188 304 188 q 409 211 383 188 q 435 278 435 235 l 435 358 l 435 383 l 435 533 l 435 546 l 435 640 q 409 705 435 676 q 340 733 383 733 q 281 705 304 733 q 258 640 258 676 l 258 546 l 258 533 l 258 383 l 258 358 l 258 278 l 258 278 z "},"p":{"ha":694,"x_min":78,"x_max":628,"o":"m 440 896 q 545 837 503 878 q 615 733 588 796 q 622 692 615 715 q 628 640 628 668 q 622 594 628 615 q 615 546 615 574 q 590 501 607 522 q 558 453 574 481 q 503 410 531 428 q 440 383 475 393 q 399 366 422 374 q 347 358 375 358 l 265 358 l 265 278 l 265 188 l 265 13 l 265 0 l 78 0 l 78 188 l 78 278 l 78 358 l 78 546 l 78 640 l 78 733 l 78 921 l 265 921 l 347 921 q 399 913 375 921 q 440 896 422 906 m 347 546 q 415 576 390 546 q 440 640 440 606 q 415 705 440 676 q 347 733 390 733 l 265 733 l 265 640 l 265 546 l 347 546 z "},"q":{"ha":694,"x_min":69,"x_max":615,"o":"m 428 896 q 533 837 490 878 q 603 733 575 796 q 609 692 603 715 q 615 640 615 668 l 615 546 l 615 358 l 615 278 l 615 0 l 335 0 q 301 1 319 0 q 265 13 283 3 l 253 13 q 144 82 190 38 q 78 188 97 126 q 70 228 71 203 q 69 278 69 253 l 69 358 l 69 546 l 69 640 q 70 692 69 668 q 78 733 71 715 q 144 837 97 796 q 253 896 190 878 q 296 913 272 906 q 335 921 319 921 q 385 913 363 921 q 428 896 408 906 m 428 640 q 404 705 428 676 q 335 733 381 733 q 276 705 300 733 q 253 640 253 676 l 253 546 l 253 533 l 253 383 l 253 358 l 253 278 q 276 211 253 235 q 335 188 300 188 q 404 211 381 188 q 428 278 428 235 l 428 358 l 428 383 l 428 533 l 428 546 l 428 640 l 428 640 z "},"r":{"ha":694,"x_min":79,"x_max":625,"o":"m 625 640 q 619 594 625 615 q 613 546 613 574 q 588 501 603 522 q 556 453 574 481 q 588 412 574 438 q 613 358 603 386 q 619 319 613 343 q 625 278 625 296 l 625 188 l 625 0 l 438 0 l 438 13 l 438 188 l 438 278 q 413 336 438 314 q 343 358 389 358 l 263 358 l 263 278 l 263 188 l 263 13 l 263 0 l 79 0 l 79 188 l 79 278 l 79 358 l 79 546 l 79 640 l 79 733 l 79 921 l 263 921 l 343 921 q 397 913 371 921 q 438 896 422 906 q 613 733 561 860 q 619 692 613 715 q 625 640 625 668 m 343 546 q 413 576 389 546 q 438 640 438 606 q 413 705 438 676 q 343 733 389 733 l 263 733 l 263 640 l 263 546 l 343 546 l 343 546 z "},"s":{"ha":694,"x_min":76,"x_max":621,"o":"m 439 896 q 542 837 500 878 q 610 733 585 796 q 615 692 610 715 q 621 640 621 668 l 621 546 l 610 546 l 439 546 l 439 640 q 413 705 439 676 q 344 733 388 733 q 285 705 308 733 q 263 640 263 676 q 285 576 263 606 q 344 546 308 546 q 394 544 369 546 q 439 533 419 543 q 500 504 472 528 q 553 453 528 481 q 587 412 571 438 q 610 358 603 386 q 615 319 610 343 q 621 278 621 296 q 615 228 621 253 q 610 188 610 203 q 542 82 585 126 q 439 13 500 38 q 394 6 419 13 q 344 0 369 0 q 302 6 326 0 q 263 13 278 13 q 152 82 201 38 q 88 188 103 126 q 78 228 79 203 q 76 278 76 253 l 76 358 l 88 358 l 263 358 l 263 278 q 285 211 263 235 q 344 188 308 188 q 413 211 388 188 q 439 278 439 235 q 413 336 439 314 q 344 358 388 358 q 302 366 326 358 q 263 383 278 374 q 199 410 226 393 q 144 453 172 428 q 112 501 126 481 q 88 546 97 522 q 78 594 79 574 q 76 640 76 615 q 78 692 76 668 q 88 733 79 715 q 152 837 103 796 q 263 896 201 878 q 302 913 278 906 q 344 921 326 921 q 394 913 369 921 q 439 896 419 906 z "},"t":{"ha":694,"x_min":64,"x_max":610,"o":"m 426 896 l 610 896 l 610 721 l 601 721 l 426 721 l 426 628 l 426 533 l 426 514 l 426 358 l 426 351 l 426 257 l 426 164 l 426 0 l 426 -11 l 333 -11 l 251 -11 l 251 0 l 251 164 l 251 257 l 251 351 l 251 358 l 251 514 l 251 533 l 251 628 l 251 721 l 76 721 l 64 721 l 64 896 l 251 896 l 333 896 l 426 896 z "},"u":{"ha":694,"x_min":71,"x_max":621,"o":"m 433 921 l 621 921 l 621 733 l 621 640 l 621 546 l 621 358 l 621 278 q 615 228 621 253 q 608 188 608 203 q 538 82 581 126 q 433 13 496 38 q 391 6 414 13 q 340 0 368 0 q 299 6 321 0 q 258 13 278 13 q 149 82 196 38 q 83 188 101 126 q 72 228 74 203 q 71 278 71 253 l 71 358 l 71 546 l 71 640 l 71 733 l 71 921 l 258 921 l 258 896 l 258 733 l 258 640 l 258 546 l 258 533 l 258 383 l 258 358 l 258 278 q 282 211 258 235 q 340 188 306 188 q 408 211 383 188 q 433 278 433 235 l 433 358 l 433 383 l 433 533 l 433 546 l 433 640 l 433 733 l 433 896 l 433 921 z "},"v":{"ha":694,"x_min":71,"x_max":621,"o":"m 433 921 l 621 921 l 433 0 l 246 0 l 71 921 l 246 921 l 339 453 l 433 921 z "},"w":{"ha":694,"x_min":72,"x_max":625,"o":"m 625 900 l 625 1 l 439 1 l 343 231 l 254 1 l 72 1 l 72 900 l 254 900 l 254 461 l 343 671 l 439 461 l 439 900 l 625 900 z "},"x":{"ha":694,"x_min":75,"x_max":621,"o":"m 621 921 l 433 453 l 621 0 l 433 0 l 344 232 l 250 0 l 75 0 l 250 453 l 75 921 l 250 921 l 344 689 l 433 921 l 621 921 z "},"y":{"ha":694,"x_min":68,"x_max":614,"o":"m 431 921 l 614 921 l 569 790 l 544 733 l 463 546 l 463 526 l 431 453 l 431 383 l 431 358 l 431 278 l 431 188 l 431 13 l 431 0 l 338 0 l 243 0 l 243 13 l 243 188 l 243 278 l 243 358 l 243 383 l 243 453 l 219 526 l 207 546 l 138 733 l 113 790 l 68 921 l 243 921 l 256 908 l 325 733 l 325 733 l 338 689 l 357 733 l 357 733 l 431 908 l 431 921 z "},"z":{"ha":694,"x_min":68,"x_max":618,"o":"m 68 921 l 618 921 l 618 733 l 243 188 l 618 188 l 618 0 l 243 0 l 68 0 l 68 188 l 431 733 l 243 733 l 68 733 l 68 921 z "},"A":{"ha":694,"x_min":75,"x_max":621,"o":"m 433 896 q 608 733 560 860 q 615 692 608 715 q 621 640 621 668 l 621 546 l 621 358 l 621 278 l 621 188 l 621 0 l 433 0 l 433 13 l 433 188 l 433 278 l 433 358 l 340 358 l 250 358 l 250 278 l 250 188 l 250 13 l 250 0 l 75 0 l 75 188 l 75 278 l 75 358 l 75 546 l 75 640 q 76 692 75 668 q 83 733 76 715 q 149 837 103 796 q 250 896 194 878 q 300 913 275 906 q 340 921 325 921 q 393 913 368 921 q 433 896 418 906 m 433 640 q 410 705 433 676 q 340 733 386 733 q 307 726 324 733 q 278 705 290 718 q 258 675 265 692 q 250 640 250 658 l 250 546 l 340 546 l 433 546 l 433 640 l 433 640 z "},"'":{"ha":315,"x_min":60,"x_max":247,"o":"m 247 942 l 247 739 l 247 632 l 247 546 l 235 546 l 60 546 l 60 632 l 60 739 l 60 929 l 60 942 l 247 942 z "},"‘":{"ha":319,"x_min":60,"x_max":247,"o":"m 247 942 l 247 739 l 247 632 l 247 546 l 235 546 l 60 546 l 60 632 l 60 739 l 60 929 l 60 942 l 247 942 z "},"’":{"ha":315,"x_min":60,"x_max":247,"o":"m 247 942 l 247 739 l 247 632 l 247 546 l 235 546 l 60 546 l 60 632 l 60 739 l 60 929 l 60 942 l 247 942 z "},"“":{"ha":569,"x_min":60,"x_max":504,"o":"m 504 942 l 504 739 l 504 632 l 504 546 l 492 546 l 317 546 l 317 632 l 317 739 l 317 929 l 317 942 l 504 942 m 247 942 l 247 739 l 247 632 l 247 546 l 235 546 l 60 546 l 60 632 l 60 739 l 60 929 l 60 942 l 247 942 z "},"”":{"ha":569,"x_min":60,"x_max":504,"o":"m 504 942 l 504 739 l 504 632 l 504 546 l 492 546 l 317 546 l 317 632 l 317 739 l 317 929 l 317 942 l 504 942 m 247 942 l 247 739 l 247 632 l 247 546 l 235 546 l 60 546 l 60 632 l 60 739 l 60 929 l 60 942 l 247 942 z "},"„":{"ha":569,"x_min":60,"x_max":504,"o":"m 504 397 l 504 194 l 504 88 l 504 1 l 492 1 l 317 1 l 317 88 l 317 194 l 317 385 l 317 397 l 504 397 m 247 397 l 247 194 l 247 88 l 247 1 l 235 1 l 60 1 l 60 88 l 60 194 l 60 385 l 60 397 l 247 397 z "},"‚":{"ha":306,"x_min":60,"x_max":247,"o":"m 247 397 l 247 194 l 247 88 l 247 1 l 235 1 l 60 1 l 60 88 l 60 194 l 60 385 l 60 397 l 247 397 z "},",":{"ha":319,"x_min":60,"x_max":247,"o":"m 247 397 l 247 194 l 247 88 l 247 1 l 235 1 l 60 1 l 60 88 l 60 194 l 60 385 l 60 397 l 247 397 z "},";":{"ha":319,"x_min":60,"x_max":254,"o":"m 247 397 l 247 194 l 247 88 l 247 1 l 235 1 l 60 1 l 60 88 l 60 194 l 60 385 l 60 397 l 247 397 m 160 739 q 194 731 176 739 q 224 709 211 722 q 246 679 238 696 q 254 646 254 663 q 246 610 254 628 q 224 580 238 593 q 194 559 211 567 q 160 551 176 551 q 92 581 117 551 q 67 646 67 610 q 92 709 67 679 q 160 739 117 739 z "},":":{"ha":319,"x_min":67,"x_max":254,"o":"m 160 301 q 194 293 176 301 q 224 272 211 285 q 246 242 238 258 q 254 208 254 225 q 246 173 254 190 q 224 142 238 156 q 194 122 211 129 q 160 114 176 114 q 92 143 117 114 q 67 208 67 172 q 92 272 67 242 q 160 301 117 301 m 160 739 q 194 731 176 739 q 224 709 211 722 q 246 679 238 696 q 254 646 254 663 q 246 610 254 628 q 224 580 238 593 q 194 559 211 567 q 160 551 176 551 q 92 581 117 551 q 67 646 67 610 q 92 709 67 679 q 160 739 117 739 z "},"=":{"ha":694,"x_min":158,"x_max":528,"o":"m 169 167 l 158 167 l 158 354 l 169 354 l 342 354 l 435 354 l 528 354 l 528 342 l 528 192 l 528 167 l 435 167 l 342 167 l 169 167 m 169 544 l 158 544 l 158 732 l 169 732 l 342 732 l 435 732 l 528 732 l 528 719 l 528 569 l 528 544 l 435 544 l 342 544 l 169 544 z "},"!":{"ha":324,"x_min":51,"x_max":246,"o":"m 58 343 l 58 546 l 58 653 l 58 921 l 71 921 l 246 921 l 246 653 l 246 546 l 246 356 l 246 343 l 58 343 m 146 1 q 112 10 129 1 q 81 31 94 18 q 60 61 68 44 q 51 94 51 78 q 60 130 51 113 q 81 160 68 147 q 112 181 94 174 q 146 189 129 189 q 214 160 189 189 q 239 94 239 131 q 214 31 239 61 q 146 1 189 1 z "},"(":{"ha":421,"x_min":72,"x_max":342,"o":"m 340 0 q 331 -1 340 -3 q 309 3 322 0 q 282 10 296 7 q 258 13 268 13 q 150 82 197 38 q 83 188 103 126 q 74 228 75 203 q 72 278 72 253 l 72 358 l 72 546 l 72 640 q 74 692 72 668 q 83 733 75 715 q 150 837 103 796 q 258 896 197 878 q 300 913 278 906 q 340 921 322 921 q 342 828 342 869 q 342 763 342 792 q 340 733 342 735 q 281 705 304 733 q 258 640 258 676 l 258 546 l 258 533 l 258 383 l 258 358 l 258 278 q 281 211 258 235 q 340 188 304 188 q 339 160 339 188 q 339 97 339 132 q 340 33 339 63 q 340 0 340 3 z "},")":{"ha":431,"x_min":78,"x_max":347,"o":"m 79 919 q 88 921 79 922 q 110 917 97 919 q 138 910 124 914 q 161 907 151 907 q 269 838 222 882 q 336 732 317 793 q 346 692 344 717 q 347 642 347 667 l 347 561 l 347 374 l 347 279 q 346 228 347 251 q 336 186 344 204 q 269 83 317 124 q 161 24 222 42 q 119 6 142 14 q 79 -1 97 -1 q 78 92 78 50 q 78 157 78 128 q 79 186 78 186 q 138 215 115 186 q 161 279 161 243 l 161 374 l 161 386 l 161 536 l 161 561 l 161 642 q 138 708 161 685 q 79 732 115 732 q 81 760 81 732 q 81 822 81 788 q 80 887 81 857 q 79 919 79 917 z "},"+":{"ha":694,"x_min":74,"x_max":619,"o":"m 264 718 l 264 726 l 451 726 l 451 718 l 451 528 l 451 433 l 451 340 l 451 193 l 451 181 l 264 181 l 264 193 l 264 340 l 264 433 l 264 528 l 264 718 m 611 546 l 619 546 l 619 358 l 611 358 l 449 358 l 354 358 l 261 358 l 86 358 l 74 358 l 74 546 l 86 546 l 261 546 l 354 546 l 449 546 l 611 546 z "},"±":{"ha":694,"x_min":74,"x_max":619,"o":"m 264 718 l 264 726 l 451 726 l 451 718 l 451 528 l 451 433 l 451 340 l 451 193 l 451 181 l 264 181 l 264 193 l 264 340 l 264 433 l 264 528 l 264 718 m 611 188 l 619 188 l 619 0 l 611 0 l 449 0 l 354 0 l 261 0 l 86 0 l 74 0 l 74 188 l 86 188 l 261 188 l 354 188 l 449 188 l 611 188 m 611 546 l 619 546 l 619 358 l 611 358 l 449 358 l 354 358 l 261 358 l 86 358 l 74 358 l 74 546 l 86 546 l 261 546 l 354 546 l 449 546 l 611 546 z "},"¡":{"ha":301,"x_min":40,"x_max":235,"o":"m 228 576 l 228 374 l 228 267 l 228 -1 l 215 -1 l 40 -1 l 40 267 l 40 374 l 40 564 l 40 576 l 228 576 m 140 918 q 174 910 157 918 q 205 888 192 901 q 226 858 218 875 q 235 825 235 842 q 226 790 235 807 q 205 759 218 772 q 174 738 192 746 q 140 731 157 731 q 72 760 97 731 q 47 825 47 789 q 72 888 47 858 q 140 918 97 918 z "},"|":{"ha":319,"x_min":58,"x_max":246,"o":"m 58 -37 l 58 582 l 58 689 l 58 957 l 71 957 l 246 957 l 246 689 l 246 582 l 246 -25 l 246 -37 l 58 -37 z "},"$":{"ha":694,"x_min":71,"x_max":615,"o":"m 253 -37 l 253 582 l 253 689 l 253 957 l 265 957 l 440 957 l 440 689 l 440 582 l 440 -25 l 440 -37 l 253 -37 m 433 896 q 389 913 414 906 q 339 921 364 921 q 297 913 321 921 q 257 896 272 906 q 147 837 196 878 q 82 733 97 796 q 72 692 74 715 q 71 640 71 668 q 72 594 71 615 q 82 546 74 574 q 106 501 92 522 q 139 453 121 481 q 194 410 167 428 q 257 383 221 393 q 297 366 272 374 q 339 358 321 358 q 408 336 382 358 q 433 278 433 314 q 408 211 433 235 q 339 188 382 188 q 280 211 303 188 q 257 278 257 235 l 257 358 l 82 358 l 71 358 l 71 278 q 72 228 71 253 q 82 188 74 203 q 147 82 97 126 q 257 13 196 38 q 297 6 272 13 q 339 0 321 0 q 389 6 364 0 q 433 13 414 13 q 537 82 494 38 q 604 188 579 126 q 610 228 604 203 q 615 278 615 253 q 610 319 615 296 q 604 358 604 343 q 581 412 597 386 q 547 453 565 438 q 494 504 522 481 q 433 533 467 528 q 389 544 414 543 q 339 546 364 546 q 280 576 303 546 q 257 640 257 606 q 280 705 257 676 q 339 733 303 733 q 408 705 382 733 q 433 640 433 676 l 433 546 l 604 546 l 615 546 l 615 640 q 610 692 615 668 q 604 733 604 715 q 537 837 579 796 q 433 896 494 878 z "},"\"":{"ha":574,"x_min":60,"x_max":504,"o":"m 504 942 l 504 739 l 504 632 l 504 546 l 492 546 l 317 546 l 317 632 l 317 739 l 317 929 l 317 942 l 504 942 m 247 942 l 247 739 l 247 632 l 247 546 l 235 546 l 60 546 l 60 632 l 60 739 l 60 929 l 60 942 l 247 942 z "},"­":{"ha":694,"x_min":158,"x_max":528,"o":"m 169 358 l 158 358 l 158 546 l 169 546 l 342 546 l 435 546 l 528 546 l 528 533 l 528 383 l 528 358 l 435 358 l 342 358 l 169 358 z "},"_":{"ha":694,"x_min":1,"x_max":693,"o":"m 685 -3 l 693 -3 l 693 -190 l 685 -190 l 449 -190 l 354 -190 l 261 -190 l 14 -190 l 1 -190 l 1 -3 l 14 -3 l 261 -3 l 354 -3 l 449 -3 l 685 -3 z "},"×":{"ha":694,"x_min":88,"x_max":614,"o":"m 100 574 l 94 579 l 228 713 l 233 706 l 368 571 l 435 504 l 500 439 l 604 335 l 614 326 l 481 193 l 472 203 l 368 306 l 301 372 l 235 439 l 100 574 m 468 697 l 474 703 l 607 571 l 600 564 l 486 450 l 419 383 l 353 317 l 229 193 l 221 185 l 88 317 l 97 326 l 221 450 l 286 515 l 353 582 l 468 697 z "},"*":{"ha":319,"x_min":67,"x_max":254,"o":"m 160 1015 q 194 1007 176 1015 q 224 985 211 999 q 246 956 238 972 q 254 922 254 939 q 246 887 254 904 q 224 856 238 869 q 194 835 211 843 q 160 828 176 828 q 92 857 117 828 q 67 922 67 886 q 92 985 67 956 q 160 1015 117 1015 z "},"?":{"ha":694,"x_min":68,"x_max":622,"o":"m 246 79 q 275 137 246 114 q 340 160 304 160 q 409 137 385 160 q 433 79 433 114 q 409 8 433 33 q 340 -17 385 -17 q 275 8 304 -17 q 246 79 246 33 m 611 728 q 617 681 611 701 q 622 633 622 660 q 617 582 622 607 q 611 540 611 557 q 586 488 601 513 q 553 444 571 463 q 499 401 526 418 q 433 375 471 383 l 433 349 l 433 256 l 433 160 l 340 160 l 246 160 l 246 256 l 246 349 l 246 375 l 246 528 l 246 540 l 340 540 q 409 565 385 540 q 433 633 433 589 q 409 698 433 668 q 340 728 385 728 q 305 719 322 728 q 274 698 288 711 q 253 667 261 685 q 246 633 246 650 l 246 540 l 81 540 l 68 540 l 68 633 q 69 681 68 660 q 81 728 71 701 q 106 781 89 754 q 144 829 122 807 q 193 868 167 851 q 246 893 219 885 q 298 910 272 903 q 340 917 324 917 q 392 910 368 917 q 433 893 417 903 q 541 828 497 876 q 611 728 585 781 z "},"•":{"ha":490,"x_min":61,"x_max":421,"o":"m 240 664 q 306 648 274 664 q 363 606 338 632 q 405 549 389 581 q 421 485 421 517 q 405 417 421 450 q 363 359 389 385 q 306 318 338 333 q 240 303 274 303 q 166 318 199 303 q 110 359 133 333 q 74 417 86 385 q 61 485 61 450 q 74 549 61 517 q 110 606 86 581 q 166 648 133 632 q 240 664 199 664 z "},"™":{"ha":694,"x_min":71,"x_max":615,"o":"m 251 897 l 343 897 l 343 810 l 339 810 l 251 810 l 251 763 l 251 715 l 251 706 l 251 628 l 251 625 l 251 578 l 251 531 l 251 449 l 251 443 l 206 443 l 164 443 l 164 449 l 164 531 l 164 578 l 164 625 l 164 628 l 164 706 l 164 715 l 164 763 l 164 810 l 76 810 l 71 810 l 71 897 l 164 897 l 206 897 l 251 897 m 526 900 l 615 900 l 615 450 l 526 450 l 526 679 l 476 564 l 433 679 l 433 450 l 342 450 l 342 900 l 433 900 l 476 785 l 526 900 z "},"¿":{"ha":694,"x_min":64,"x_max":618,"o":"m 440 832 q 411 774 440 797 q 346 751 382 751 q 277 774 301 751 q 253 832 253 797 q 277 903 253 878 q 346 928 301 928 q 411 903 382 928 q 440 832 440 878 m 75 183 q 69 231 75 210 q 64 278 64 251 q 69 329 64 304 q 75 371 75 354 q 100 424 85 399 q 133 467 115 449 q 188 510 160 493 q 253 536 215 528 l 253 563 l 253 656 l 253 751 l 346 751 l 440 751 l 440 656 l 440 563 l 440 536 l 440 383 l 440 371 l 346 371 q 277 347 301 371 q 253 278 253 322 q 277 213 253 243 q 346 183 301 183 q 381 192 364 183 q 412 213 399 200 q 433 244 425 226 q 440 278 440 261 l 440 371 l 606 371 l 618 371 l 618 278 q 617 231 618 251 q 606 183 615 210 q 581 131 597 157 q 542 82 564 104 q 493 43 519 60 q 440 18 467 26 q 388 1 414 8 q 346 -6 363 -6 q 294 1 318 -6 q 253 18 269 8 q 145 83 189 35 q 75 183 101 131 z "}}}
